<mxfile host="65bd71144e">
    <diagram id="WQ4ZXQROGosWzq17Xb37" name="PÃ¡gina-1">
        <mxGraphModel dx="1235" dy="467" grid="1" gridSize="10" guides="1" tooltips="1" connect="1" arrows="1" fold="1" page="1" pageScale="1" pageWidth="827" pageHeight="1169" math="0" shadow="0">
            <root>
                <mxCell id="0"/>
                <mxCell id="1" parent="0"/>
                <mxCell id="3" style="edgeStyle=none;html=1;" edge="1" parent="1" source="2">
                    <mxGeometry relative="1" as="geometry">
                        <mxPoint x="260" y="110" as="targetPoint"/>
                    </mxGeometry>
                </mxCell>
                <mxCell id="2" value="Inicio" style="ellipse;whiteSpace=wrap;html=1;fillColor=#FF99CC;fontColor=#000000;" vertex="1" parent="1">
                    <mxGeometry x="200" y="40" width="120" height="40" as="geometry"/>
                </mxCell>
                <mxCell id="5" style="edgeStyle=none;html=1;exitX=0.5;exitY=1;exitDx=0;exitDy=0;exitPerimeter=0;fontColor=#000000;" edge="1" parent="1" source="4">
                    <mxGeometry relative="1" as="geometry">
                        <mxPoint x="260" y="190" as="targetPoint"/>
                    </mxGeometry>
                </mxCell>
                <mxCell id="4" value="&lt;font color=&quot;#000000&quot;&gt;a,b,c,mayor&lt;/font&gt;" style="shape=card;whiteSpace=wrap;html=1;fillColor=#CC99FF;size=20;" vertex="1" parent="1">
                    <mxGeometry x="200" y="110" width="120" height="50" as="geometry"/>
                </mxCell>
                <mxCell id="8" style="edgeStyle=none;html=1;exitX=0.5;exitY=1;exitDx=0;exitDy=0;entryX=0.5;entryY=0;entryDx=0;entryDy=0;fontColor=#000000;" edge="1" parent="1" source="6" target="7">
                    <mxGeometry relative="1" as="geometry"/>
                </mxCell>
                <mxCell id="6" value="a,b,c" style="shape=parallelogram;perimeter=parallelogramPerimeter;whiteSpace=wrap;html=1;fixedSize=1;fontColor=#000000;fillColor=#9999FF;" vertex="1" parent="1">
                    <mxGeometry x="200" y="190" width="120" height="50" as="geometry"/>
                </mxCell>
                <mxCell id="11" style="edgeStyle=none;html=1;exitX=1;exitY=0.5;exitDx=0;exitDy=0;fontColor=#000000;" edge="1" parent="1" source="7">
                    <mxGeometry relative="1" as="geometry">
                        <mxPoint x="500" y="330" as="targetPoint"/>
                        <Array as="points">
                            <mxPoint x="500" y="310"/>
                        </Array>
                    </mxGeometry>
                </mxCell>
                <mxCell id="14" style="edgeStyle=none;html=1;exitX=0;exitY=0.5;exitDx=0;exitDy=0;fontColor=#000000;" edge="1" parent="1" source="7">
                    <mxGeometry relative="1" as="geometry">
                        <mxPoint x="20" y="330" as="targetPoint"/>
                        <Array as="points">
                            <mxPoint x="90" y="310"/>
                            <mxPoint x="20" y="310"/>
                        </Array>
                    </mxGeometry>
                </mxCell>
                <mxCell id="7" value="a&amp;gt;b" style="rhombus;whiteSpace=wrap;html=1;fontColor=#000000;fillColor=#99CCFF;" vertex="1" parent="1">
                    <mxGeometry x="200" y="270" width="120" height="80" as="geometry"/>
                </mxCell>
                <mxCell id="12" style="edgeStyle=none;html=1;exitX=1;exitY=0.5;exitDx=0;exitDy=0;fontColor=#000000;" edge="1" parent="1" source="10">
                    <mxGeometry relative="1" as="geometry">
                        <mxPoint x="640" y="390" as="targetPoint"/>
                        <Array as="points">
                            <mxPoint x="640" y="370"/>
                        </Array>
                    </mxGeometry>
                </mxCell>
                <mxCell id="16" style="edgeStyle=none;html=1;exitX=0;exitY=0.5;exitDx=0;exitDy=0;fontColor=#000000;entryX=0.5;entryY=0;entryDx=0;entryDy=0;" edge="1" parent="1" source="10" target="15">
                    <mxGeometry relative="1" as="geometry">
                        <mxPoint x="280" y="370" as="targetPoint"/>
                        <Array as="points">
                            <mxPoint x="360" y="370"/>
                        </Array>
                    </mxGeometry>
                </mxCell>
                <mxCell id="10" value="a&amp;gt;c" style="rhombus;whiteSpace=wrap;html=1;fontColor=#000000;fillColor=#99CCFF;" vertex="1" parent="1">
                    <mxGeometry x="440" y="330" width="120" height="80" as="geometry"/>
                </mxCell>
                <mxCell id="13" value="Mayor = a" style="rounded=0;whiteSpace=wrap;html=1;fontColor=#000000;fillColor=#99FF99;" vertex="1" parent="1">
                    <mxGeometry x="580" y="390" width="120" height="50" as="geometry"/>
                </mxCell>
                <mxCell id="15" value="mayor =&amp;nbsp; c" style="rounded=0;whiteSpace=wrap;html=1;fontColor=#000000;fillColor=#99FF99;" vertex="1" parent="1">
                    <mxGeometry x="300" y="390" width="120" height="50" as="geometry"/>
                </mxCell>
                <mxCell id="20" value="a&amp;gt;c" style="rhombus;whiteSpace=wrap;html=1;fontColor=#000000;fillColor=#99CCFF;" vertex="1" parent="1">
                    <mxGeometry x="-40" y="330" width="120" height="80" as="geometry"/>
                </mxCell>
                <mxCell id="21" style="edgeStyle=none;html=1;exitX=0;exitY=0.5;exitDx=0;exitDy=0;fontColor=#000000;entryX=0.5;entryY=0;entryDx=0;entryDy=0;" edge="1" parent="1">
                    <mxGeometry relative="1" as="geometry">
                        <mxPoint x="-120" y="390" as="targetPoint"/>
                        <mxPoint x="-40" y="370" as="sourcePoint"/>
                        <Array as="points">
                            <mxPoint x="-120" y="370"/>
                        </Array>
                    </mxGeometry>
                </mxCell>
                <mxCell id="22" style="edgeStyle=none;html=1;exitX=1;exitY=0.5;exitDx=0;exitDy=0;fontColor=#000000;" edge="1" parent="1">
                    <mxGeometry relative="1" as="geometry">
                        <mxPoint x="160" y="390" as="targetPoint"/>
                        <mxPoint x="80" y="370" as="sourcePoint"/>
                        <Array as="points">
                            <mxPoint x="160" y="370"/>
                        </Array>
                    </mxGeometry>
                </mxCell>
                <mxCell id="23" value="mayor =b" style="rounded=0;whiteSpace=wrap;html=1;fontColor=#000000;fillColor=#99FF99;" vertex="1" parent="1">
                    <mxGeometry x="100" y="390" width="120" height="50" as="geometry"/>
                </mxCell>
                <mxCell id="24" value="mayor = c" style="rounded=0;whiteSpace=wrap;html=1;fontColor=#000000;fillColor=#99FF99;" vertex="1" parent="1">
                    <mxGeometry x="-180" y="390" width="120" height="50" as="geometry"/>
                </mxCell>
                <mxCell id="25" value="" style="endArrow=none;html=1;fontColor=#000000;exitX=0.5;exitY=1;exitDx=0;exitDy=0;entryX=0.5;entryY=1;entryDx=0;entryDy=0;" edge="1" parent="1" source="24" target="23">
                    <mxGeometry width="50" height="50" relative="1" as="geometry">
                        <mxPoint x="110" y="550" as="sourcePoint"/>
                        <mxPoint x="190" y="480" as="targetPoint"/>
                        <Array as="points">
                            <mxPoint x="-120" y="470"/>
                            <mxPoint x="160" y="470"/>
                        </Array>
                    </mxGeometry>
                </mxCell>
                <mxCell id="26" value="" style="endArrow=none;html=1;fontColor=#000000;exitX=0.5;exitY=1;exitDx=0;exitDy=0;entryX=0.5;entryY=1;entryDx=0;entryDy=0;" edge="1" parent="1">
                    <mxGeometry width="50" height="50" relative="1" as="geometry">
                        <mxPoint x="360" y="440" as="sourcePoint"/>
                        <mxPoint x="640" y="440" as="targetPoint"/>
                        <Array as="points">
                            <mxPoint x="360" y="470"/>
                            <mxPoint x="640" y="470"/>
                        </Array>
                    </mxGeometry>
                </mxCell>
                <mxCell id="27" value="" style="endArrow=none;html=1;fontColor=#000000;exitX=0.5;exitY=1;exitDx=0;exitDy=0;" edge="1" parent="1">
                    <mxGeometry width="50" height="50" relative="1" as="geometry">
                        <mxPoint x="20" y="470" as="sourcePoint"/>
                        <mxPoint x="500" y="470" as="targetPoint"/>
                        <Array as="points">
                            <mxPoint x="20" y="500"/>
                            <mxPoint x="500" y="500"/>
                        </Array>
                    </mxGeometry>
                </mxCell>
                <mxCell id="28" value="" style="endArrow=classic;html=1;fontColor=#000000;" edge="1" parent="1">
                    <mxGeometry width="50" height="50" relative="1" as="geometry">
                        <mxPoint x="260" y="500" as="sourcePoint"/>
                        <mxPoint x="260" y="520" as="targetPoint"/>
                    </mxGeometry>
                </mxCell>
                <mxCell id="31" style="edgeStyle=none;html=1;fontColor=#000000;" edge="1" parent="1" source="29">
                    <mxGeometry relative="1" as="geometry">
                        <mxPoint x="260" y="600" as="targetPoint"/>
                    </mxGeometry>
                </mxCell>
                <mxCell id="29" value="mayor" style="shape=document;whiteSpace=wrap;html=1;boundedLbl=1;fontColor=#000000;fillColor=#FFFF99;" vertex="1" parent="1">
                    <mxGeometry x="200" y="520" width="120" height="50" as="geometry"/>
                </mxCell>
                <mxCell id="32" value="Inicio" style="ellipse;whiteSpace=wrap;html=1;fillColor=#FF99CC;fontColor=#000000;" vertex="1" parent="1">
                    <mxGeometry x="200" y="600" width="120" height="40" as="geometry"/>
                </mxCell>
            </root>
        </mxGraphModel>
    </diagram>
</mxfile>